<svg width="18" height="20" viewBox="0 0 18 20" fill="none" xmlns="http://www.w3.org/2000/svg">
<path fill-rule="evenodd" clip-rule="evenodd" d="M9.00045 0.145508C6.59571 0.145508 4.64628 2.09493 4.64628 4.49967C4.64628 6.90441 6.59571 8.85384 9.00045 8.85384C11.4052 8.85384 13.3546 6.90441 13.3546 4.49967C13.3546 2.09493 11.4052 0.145508 9.00045 0.145508ZM6.02128 4.49967C6.02128 2.85433 7.3551 1.52051 9.00045 1.52051C10.6458 1.52051 11.9796 2.85433 11.9796 4.49967C11.9796 6.14502 10.6458 7.47884 9.00045 7.47884C7.3551 7.47884 6.02128 6.14502 6.02128 4.49967Z" fill="#7B7B7B"/>
<path fill-rule="evenodd" clip-rule="evenodd" d="M9.00045 10.2288C6.87969 10.2288 4.9258 10.7109 3.47794 11.5253C2.05164 12.3276 0.979615 13.5436 0.979615 15.0413L0.979554 15.1348C0.978519 16.1998 0.977219 17.5365 2.14966 18.4913C2.72667 18.9611 3.53389 19.2953 4.62447 19.516C5.7181 19.7374 7.14349 19.8538 9.00045 19.8538C10.8574 19.8538 12.2828 19.7374 13.3764 19.516C14.467 19.2953 15.2742 18.9611 15.8512 18.4913C17.0237 17.5365 17.0224 16.1998 17.0213 15.1348L17.0213 15.0413C17.0213 13.5436 15.9493 12.3276 14.523 11.5253C13.0751 10.7109 11.1212 10.2288 9.00045 10.2288ZM2.35462 15.0413C2.35462 14.2609 2.92421 13.4144 4.15205 12.7237C5.35835 12.0452 7.07112 11.6038 9.00045 11.6038C10.9298 11.6038 12.6426 12.0452 13.8488 12.7237C15.0767 13.4144 15.6463 14.2609 15.6463 15.0413C15.6463 16.2402 15.6093 16.915 14.983 17.4251C14.6433 17.7017 14.0756 17.9716 13.1036 18.1683C12.1348 18.3645 10.8102 18.4788 9.00045 18.4788C7.19074 18.4788 5.86613 18.3645 4.89726 18.1683C3.92534 17.9716 3.35756 17.7017 3.0179 17.4251C2.39157 16.915 2.35462 16.2402 2.35462 15.0413Z" fill="#7B7B7B"/>
</svg>
