<svg width="120" height="108" viewBox="0 0 120 108" fill="none" xmlns="http://www.w3.org/2000/svg">
<path fill-rule="evenodd" clip-rule="evenodd" d="M19.8703 46.569C37.3804 15.523 46.1355 0 60 0C73.8645 0 82.6195 15.523 100.13 46.5689L102.312 50.4376C116.863 76.2366 124.138 89.1361 117.562 98.5681C110.987 108 94.7186 108 62.182 108H57.818C25.2814 108 9.01303 108 2.43754 98.5681C-4.13795 89.1361 3.13747 76.2366 17.6883 50.4376L19.8703 46.569ZM60 25.5C62.4853 25.5 64.5 27.5147 64.5 30V60C64.5 62.4853 62.4853 64.5 60 64.5C57.5147 64.5 55.5 62.4853 55.5 60V30C55.5 27.5147 57.5147 25.5 60 25.5ZM60 84C63.3137 84 66 81.3137 66 78C66 74.6863 63.3137 72 60 72C56.6863 72 54 74.6863 54 78C54 81.3137 56.6863 84 60 84Z" fill="#FDB935"/>
</svg>
