<svg width="382" height="255" viewBox="0 0 382 255" fill="none" xmlns="http://www.w3.org/2000/svg">
<rect width="382" height="255" fill="#F1EFEF"/>
<path d="M208.365 122.873C208.365 124.842 206.699 126.439 204.644 126.439C202.589 126.439 200.923 124.842 200.923 122.873C200.923 120.903 202.589 119.306 204.644 119.306C206.699 119.306 208.365 120.903 208.365 122.873Z" fill="#DEDEDE"/>
<path fill-rule="evenodd" clip-rule="evenodd" d="M207.097 110.754C204.271 110.389 200.66 110.389 196.101 110.389H185.899C181.34 110.389 177.729 110.389 174.903 110.754C171.995 111.128 169.641 111.918 167.785 113.697C165.928 115.477 165.104 117.733 164.713 120.521C164.333 123.23 164.333 126.691 164.333 131.06V131.329C164.333 135.698 164.333 139.16 164.713 141.868C165.104 144.656 165.928 146.912 167.785 148.692C169.641 150.471 171.995 151.261 174.903 151.636C177.729 152 181.34 152 185.899 152H196.101C200.66 152 204.271 152 207.097 151.636C210.005 151.261 212.359 150.471 214.216 148.692C216.072 146.912 216.896 144.656 217.287 141.868C217.667 139.16 217.667 135.698 217.667 131.329V131.06C217.667 126.691 217.667 123.23 217.287 120.521C216.896 117.733 216.072 115.477 214.216 113.697C212.359 111.918 210.005 111.128 207.097 110.754ZM175.399 114.288C172.903 114.61 171.466 115.213 170.416 116.219C169.366 117.226 168.737 118.604 168.401 120.996C168.132 122.915 168.072 125.313 168.058 128.45L169.314 127.397C172.312 124.883 176.829 125.027 179.646 127.727L190.287 137.927C191.353 138.948 193.03 139.087 194.263 138.257L195.002 137.758C198.55 135.368 203.351 135.645 206.574 138.426L212.994 143.965C213.257 143.261 213.455 142.42 213.599 141.393C213.942 138.95 213.946 135.729 213.946 131.195C213.946 126.661 213.942 123.44 213.599 120.996C213.264 118.604 212.634 117.226 211.585 116.219C210.535 115.213 209.097 114.61 206.601 114.288C204.052 113.96 200.692 113.956 195.961 113.956H186.039C181.309 113.956 177.948 113.96 175.399 114.288Z" fill="#E2DFDF"/>
<path d="M204.564 102.961C202.271 102.667 199.352 102.667 195.713 102.667H187.473C183.834 102.667 180.915 102.667 178.622 102.961C176.248 103.266 174.268 103.916 172.698 105.416C171.793 106.281 171.183 107.276 170.768 108.398C172.112 107.785 173.632 107.424 175.339 107.203C178.231 106.828 181.925 106.828 186.59 106.828H197.03C201.695 106.828 205.39 106.828 208.281 107.203C209.772 107.396 211.12 107.696 212.333 108.177C211.921 107.145 211.333 106.223 210.488 105.416C208.918 103.916 206.938 103.266 204.564 102.961Z" fill="#DEDEDE"/>
</svg>
